<?xml version="1.0" encoding="UTF-8" standalone="no"?>
<!-- Generator: Adobe Illustrator 14.0.0, SVG Export Plug-In . SVG Version: 6.00 Build 43363)  -->

<svg
   xmlns:dc="http://purl.org/dc/elements/1.1/"
   xmlns:cc="http://creativecommons.org/ns#"
   xmlns:rdf="http://www.w3.org/1999/02/22-rdf-syntax-ns#"
   xmlns:svg="http://www.w3.org/2000/svg"
   xmlns="http://www.w3.org/2000/svg"
   xmlns:xlink="http://www.w3.org/1999/xlink"
   xmlns:sodipodi="http://sodipodi.sourceforge.net/DTD/sodipodi-0.dtd"
   xmlns:inkscape="http://www.inkscape.org/namespaces/inkscape"
   version="1.0"
   id="Layer_1"
   x="0px"
   y="0px"
   width="100"
   height="100"
   viewBox="0 0 100 99.999999"
   enable-background="new 0 0 100 97.222"
   xml:space="preserve"
   inkscape:version="0.48.2 r9819"
   sodipodi:docname="application_icon.svg"
   inkscape:export-filename="/home/kriomant/Dropbox/Projects/gortrans/src/main/res/drawable/application_icon.png"
   inkscape:export-xdpi="86.400002"
   inkscape:export-ydpi="86.400002"><metadata
   id="metadata9"><rdf:RDF><cc:Work
       rdf:about=""><dc:format>image/svg+xml</dc:format><dc:type
         rdf:resource="http://purl.org/dc/dcmitype/StillImage" /><dc:title></dc:title></cc:Work></rdf:RDF></metadata><defs
   id="defs7"><linearGradient
     id="linearGradient5196"><stop
       style="stop-color:#c35a00;stop-opacity:1"
       offset="0"
       id="stop5198" /><stop
       style="stop-color:#ff9600;stop-opacity:1"
       offset="1"
       id="stop5200" /></linearGradient><radialGradient
     inkscape:collect="always"
     xlink:href="#linearGradient5196"
     id="radialGradient5214"
     cx="59.193249"
     cy="70.693451"
     fx="59.193249"
     fy="70.693451"
     r="50"
     gradientTransform="matrix(0.25974466,-0.86878295,1.4493942,0.43333308,-45.798052,96.0883)"
     gradientUnits="userSpaceOnUse" /></defs><sodipodi:namedview
   pagecolor="#ffffff"
   bordercolor="#666666"
   borderopacity="1"
   objecttolerance="10"
   gridtolerance="10"
   guidetolerance="10"
   inkscape:pageopacity="0"
   inkscape:pageshadow="2"
   inkscape:window-width="1600"
   inkscape:window-height="876"
   id="namedview5"
   showgrid="false"
   inkscape:zoom="2.4274341"
   inkscape:cx="-29.713801"
   inkscape:cy="48.611"
   inkscape:window-x="0"
   inkscape:window-y="24"
   inkscape:window-maximized="1"
   inkscape:current-layer="Layer_1"
   borderlayer="false" />
<path
   inkscape:connector-curvature="0"
   style="fill:#fff5a5;fill-opacity:1"
   id="path5255"
   d="M 95.339031,60.204671 89.040533,17.204227 c 0,0 -1.438154,-9.895698 -11.692936,-9.895698 l -54.695194,0 c -10.254782,9.068e-4 -11.694749,9.896605 -11.694749,9.896605 l -6.296685,42.999537 2.5181298,14.212879 -1.6186034,1.979502 0,10.07524 6.8371256,0 0,8.99617 16.552374,0 0,-8.99617 42.099104,0 0,8.99617 16.55328,0 0,-8.99617 6.836219,0 0,-10.07524 -1.61951,-1.979502 z"
   sodipodi:nodetypes="ccscccccccccccccccccc" /><path
   d="M 95.339031,60.204671 89.040533,17.204227 c 0,0 -1.438154,-9.895698 -11.692936,-9.895698 H 22.652403 C 12.397621,7.3094358 10.957654,17.205134 10.957654,17.205134 L 4.660969,60.204671 7.1790988,74.41755 5.5604954,76.397052 v 10.07524 h 6.8371256 v 8.99617 h 16.552374 v -8.99617 h 42.099104 v 8.99617 h 16.55328 v -8.99617 h 6.836219 V 76.397052 L 92.819088,74.41755 95.339031,60.204671 z M 31.197904,9.4684804 H 68.801189 V 19.542814 H 31.197904 V 9.4684804 z M 12.666935,24.581794 29.578394,22.781834 H 47.390285 V 50.129431 H 9.4288215 L 12.666935,24.581794 z m 15.607508,44.080419 c 0,2.184435 -1.771849,3.957191 -3.958097,3.957191 -1.679358,0 -3.112978,-1.047332 -3.687877,-2.522664 -0.575806,1.475332 -2.009426,2.522664 -3.688784,2.522664 -2.186248,0 -3.958097,-1.772756 -3.958097,-3.957191 0,-2.187154 1.772756,-3.959004 3.958097,-3.959004 1.679358,0 3.112978,1.045518 3.688784,2.521757 0.574899,-1.476239 2.008519,-2.521757 3.687877,-2.521757 2.186248,-9.07e-4 3.958097,1.77185 3.958097,3.959004 z m 59.687021,9.714341 H 12.037629 V 76.93568 h 75.923835 v 1.440874 z M 71.723743,68.662213 c 0,-2.187154 1.77185,-3.959004 3.958098,-3.959004 1.679357,0 3.112978,1.045518 3.688783,2.521757 0.574899,-1.476239 2.008519,-2.521757 3.68697,-2.521757 2.186248,0 3.957191,1.77185 3.957191,3.959004 0,2.184435 -1.770943,3.957191 -3.957191,3.957191 -1.679357,0 -3.112978,-1.047332 -3.68697,-2.522664 -0.576712,1.475332 -2.010332,2.522664 -3.688783,2.522664 -2.186248,0 -3.958098,-1.772756 -3.958098,-3.957191 z M 52.607901,50.129431 V 22.781834 H 70.4207 l 16.911458,1.79996 3.238114,25.547637 H 52.607901 z"
   id="path3"
   style="fill:url(#radialGradient5214);fill-opacity:1"
   inkscape:connector-curvature="0"
   inkscape:export-filename="/home/kriomant/Dropbox/Projects/gortrans/src/main/res/drawable/path3.png"
   inkscape:export-xdpi="86"
   inkscape:export-ydpi="86" />
</svg>