<?xml version="1.0" encoding="UTF-8" standalone="no"?>
<!-- Created with Inkscape (http://www.inkscape.org/) -->

<svg
   xmlns:dc="http://purl.org/dc/elements/1.1/"
   xmlns:cc="http://creativecommons.org/ns#"
   xmlns:rdf="http://www.w3.org/1999/02/22-rdf-syntax-ns#"
   xmlns:svg="http://www.w3.org/2000/svg"
   xmlns="http://www.w3.org/2000/svg"
   xmlns:xlink="http://www.w3.org/1999/xlink"
   xmlns:sodipodi="http://sodipodi.sourceforge.net/DTD/sodipodi-0.dtd"
   xmlns:inkscape="http://www.inkscape.org/namespaces/inkscape"
   width="96"
   height="96"
   id="svg2"
   version="1.1"
   inkscape:version="0.48.2 r9819"
   sodipodi:docname="tram.svg">
  <defs
     id="defs4">
    <filter
       id="filter4559"
       inkscape:label="Drop shadow"
       width="1.5"
       height="1.5"
       x="-0.25"
       y="-0.25"
       color-interpolation-filters="sRGB">
      <feGaussianBlur
         id="feGaussianBlur4561"
         in="SourceAlpha"
         stdDeviation="6"
         result="blur" />
      <feColorMatrix
         id="feColorMatrix4563"
         result="bluralpha"
         type="matrix"
         values="1 0 0 0 0 0 1 0 0 0 0 0 1 0 0 0 0 0 0.25 0 " />
      <feOffset
         id="feOffset4565"
         in="bluralpha"
         dx="-2.41474e-15"
         dy="-2.41474e-15"
         result="offsetBlur" />
      <feMerge
         id="feMerge4567">
        <feMergeNode
           id="feMergeNode4569"
           in="offsetBlur" />
        <feMergeNode
           id="feMergeNode4571"
           in="SourceGraphic" />
      </feMerge>
    </filter>
    <filter
       id="filter4723"
       inkscape:label="Drop shadow"
       width="1.5"
       height="1.5"
       x="-.25"
       y="-.25">
      <feGaussianBlur
         id="feGaussianBlur4725"
         in="SourceAlpha"
         stdDeviation="3"
         result="blur" />
      <feColorMatrix
         id="feColorMatrix4727"
         result="bluralpha"
         type="matrix"
         values="1 0 0 0 0 0 1 0 0 0 0 0 1 0 0 0 0 0 0.25 0 " />
      <feOffset
         id="feOffset4729"
         in="bluralpha"
         dx="-2.41474e-15"
         dy="-2.41474e-15"
         result="offsetBlur" />
      <feMerge
         id="feMerge4731">
        <feMergeNode
           id="feMergeNode4733"
           in="offsetBlur" />
        <feMergeNode
           id="feMergeNode4735"
           in="SourceGraphic" />
      </feMerge>
    </filter>
    <filter
       id="filter4886"
       inkscape:label="Drop shadow"
       width="1.5"
       height="1.5"
       x="-.25"
       y="-.25">
      <feGaussianBlur
         id="feGaussianBlur4888"
         in="SourceAlpha"
         stdDeviation="3"
         result="blur" />
      <feColorMatrix
         id="feColorMatrix4890"
         result="bluralpha"
         type="matrix"
         values="1 0 0 0 0 0 1 0 0 0 0 0 1 0 0 0 0 0 0.25 0 " />
      <feOffset
         id="feOffset4892"
         in="bluralpha"
         dx="-2.41474e-15"
         dy="-2.41474e-15"
         result="offsetBlur" />
      <feMerge
         id="feMerge4894">
        <feMergeNode
           id="feMergeNode4896"
           in="offsetBlur" />
        <feMergeNode
           id="feMergeNode4898"
           in="SourceGraphic" />
      </feMerge>
    </filter>
    <filter
       id="filter5065"
       inkscape:label="Drop shadow"
       width="1.5"
       height="1.5"
       x="-.25"
       y="-.25">
      <feGaussianBlur
         id="feGaussianBlur5067"
         in="SourceAlpha"
         stdDeviation="3"
         result="blur" />
      <feColorMatrix
         id="feColorMatrix5069"
         result="bluralpha"
         type="matrix"
         values="1 0 0 0 0 0 1 0 0 0 0 0 1 0 0 0 0 0 0.25 0 " />
      <feOffset
         id="feOffset5071"
         in="bluralpha"
         dx="-2.41474e-15"
         dy="-2.41474e-15"
         result="offsetBlur" />
      <feMerge
         id="feMerge5073">
        <feMergeNode
           id="feMergeNode5075"
           in="offsetBlur" />
        <feMergeNode
           id="feMergeNode5077"
           in="SourceGraphic" />
      </feMerge>
    </filter>
  </defs>
  <sodipodi:namedview
     id="base"
     pagecolor="#ffffff"
     bordercolor="#666666"
     borderopacity="1.0"
     inkscape:pageopacity="0.0"
     inkscape:pageshadow="2"
     inkscape:zoom="8"
     inkscape:cx="54.064783"
     inkscape:cy="49.437303"
     inkscape:document-units="px"
     inkscape:current-layer="layer3"
     showgrid="false"
     inkscape:window-width="1600"
     inkscape:window-height="876"
     inkscape:window-x="0"
     inkscape:window-y="24"
     inkscape:window-maximized="1"
     showguides="true"
     inkscape:guide-bbox="true"
     inkscape:snap-object-midpoints="true"
     fit-margin-top="0"
     fit-margin-left="0"
     fit-margin-right="0"
     fit-margin-bottom="0"
     inkscape:snap-to-guides="false">
    <sodipodi:guide
       orientation="1,0"
       position="197.48736,91.367667"
       id="guide3880" />
    <sodipodi:guide
       orientation="1,0"
       position="48,99.875"
       id="guide4579" />
    <sodipodi:guide
       orientation="1,0"
       position="3,100.5"
       id="guide4581" />
    <sodipodi:guide
       orientation="1,0"
       position="45,92.125"
       id="guide4583" />
    <sodipodi:guide
       orientation="0,1"
       position="66.75,48"
       id="guide4585" />
    <sodipodi:guide
       orientation="0,1"
       position="26.5,45"
       id="guide4587" />
    <sodipodi:guide
       orientation="0,1"
       position="30.375,3"
       id="guide4589" />
    <sodipodi:guide
       orientation="0,1"
       position="34.125,51"
       id="guide4591" />
    <sodipodi:guide
       orientation="0,1"
       position="26.75,93"
       id="guide4595" />
    <sodipodi:guide
       orientation="1,0"
       position="93,107.375"
       id="guide4597" />
    <sodipodi:guide
       orientation="1,0"
       position="51,37.125"
       id="guide4737" />
    <sodipodi:guide
       orientation="0,1"
       position="45,18.25"
       id="guide4880" />
  </sodipodi:namedview>
  <metadata
     id="metadata7">
    <rdf:RDF>
      <cc:Work
         rdf:about="">
        <dc:format>image/svg+xml</dc:format>
        <dc:type
           rdf:resource="http://purl.org/dc/dcmitype/StillImage" />
        <dc:title></dc:title>
      </cc:Work>
    </rdf:RDF>
  </metadata>
  <g
     inkscape:groupmode="layer"
     id="layer3"
     inkscape:label="Слой#1"
     style="opacity:0">
    <rect
       style="fill:#ff0000;fill-opacity:1;stroke:none"
       id="tab_bus_inactive"
       width="48"
       height="48"
       x="0"
       y="48"
       inkscape:label="#rect4740"
       inkscape:export-filename="/home/kriomant/Dropbox/Projects/gortrans/src/main/res/drawable/tab_bus_inactive.png"
       inkscape:export-xdpi="90"
       inkscape:export-ydpi="90" />
    <rect
       y="48"
       x="48"
       height="48"
       width="48"
       id="tab_bus_active"
       style="fill:#00ff00;fill-opacity:1;stroke:none"
       inkscape:label="#rect4742"
       inkscape:export-filename="/home/kriomant/Dropbox/Projects/gortrans/src/main/res/drawable/tab_bus_active.png"
       inkscape:export-xdpi="90"
       inkscape:export-ydpi="90" />
  </g>
  <g
     inkscape:groupmode="layer"
     id="layer2"
     inkscape:label="Слой"
     style="display:inline"
     transform="translate(-0.25,-14.343749)">
    <g
       id="g5056"
       transform="translate(0,-12)">
      <path
         id="path4977"
         d="m 12.737906,58.215827 0,0 c -0.0013,0 -0.0033,0 -0.0046,0 l 0,0 C 11.43012,58.212527 10.376339,57.157015 10.3755,55.853828 l 0,0 c 0,-0.01006 0,-0.01844 0,-0.02599 l 0,0 c 0.01299,-1.294384 1.065099,-2.338526 2.361998,-2.338945 l 0,0 c 1.304444,4.19e-4 2.361579,1.057556 2.361999,2.362418 l 0,0 c 0,0.0021 0,0.0038 0,0.0079 l 0,0 c -0.0029,1.302348 -1.058813,2.35655 -2.36158,2.35655 l 0,0 0,0 z m -0.0029,-1.550074 c 0.0013,0 0.0017,0 0.0033,0 l 0,0 c 0.446831,0 0.810667,-0.362998 0.811505,-0.808151 l 0,0 c 0,-0.0029 0,-0.0046 0,-0.0067 l 0,0 c -4.19e-4,-0.447669 -0.363836,-0.811086 -0.811505,-0.811505 l 0,0 c -0.447669,4.19e-4 -0.810666,0.363416 -0.811085,0.811505 l 0,0 v 0.01928 0.0013 c 0.0084,0.439285 0.367608,0.79348 0.807732,0.794319 l 0,0 0,0 0,0 z"
         inkscape:connector-curvature="0" />
      <path
         id="path4979"
         d="m 33.774572,58.215827 0,0 c -0.0021,0 -0.0033,0 -0.005,0 l 0,0 c -1.303186,-0.0025 -2.356969,-1.058812 -2.357388,-2.361999 l 0,0 c 0,-4.18e-4 0,-0.0013 0,-0.0025 l 0,0 0,0 c 4.19e-4,-1.305282 1.057555,-2.361999 2.362836,-2.362418 l 0,0 c 1.304444,4.19e-4 2.360741,1.056717 2.361999,2.361579 l 0,0 0,0 v 8.39e-4 c 0,0.0021 0,0.0038 0,0.0079 l 0,0 c -0.0038,1.303187 -1.06007,2.35655 -2.362417,2.35655 l 0,0 0,0 z m -0.0033,-1.550913 c 8.38e-4,0 0.0025,0 0.0033,0 l 0,0 c 0.446411,8.39e-4 0.811085,-0.362159 0.811504,-0.807312 l 0,0 c 0,-0.0029 0,-0.0046 0,-0.0067 l 0,0 c -4.19e-4,-0.447669 -0.363417,-0.811086 -0.811086,-0.812343 l 0,0 c -0.447668,0.0013 -0.811085,0.364254 -0.811923,0.812343 l 0,0 v 0.02305 c 0.01048,0.438028 0.368866,0.790547 0.808151,0.790966 l 0,0 0,0 0,0 z"
         inkscape:connector-curvature="0" />
      <path
         id="path4981"
         d="m 43.041904,44.264318 -8.061812,0.01258 -5.136036,0.01258 -5.139391,0.0092 -5.13897,0.01258 -5.136455,0.0096 -9.702846,-0.0373 c -0.3303025,0.02389 -0.5952152,0.236828 -0.609886,0.544915 L 3.8692003,50.40468 3.3146442,50.831391 v 2.727091 l 0.00964,2.093314 c -0.01006,0.555394 0.4091056,0.851745 0.8265946,0.863481 h 6.0028702 c -0.05365,-0.211259 -0.08258,-0.43216 -0.08258,-0.660605 0,-0.01216 0,-0.02222 4.19e-4,-0.02893 0.01425,-1.461631 1.202167,-2.641582 2.666312,-2.642001 1.473368,4.19e-4 2.666312,1.194621 2.667151,2.666731 v 0.0096 c -4.19e-4,0.225512 -0.02934,0.445155 -0.083,0.654737 h 8.856551 l 7.016413,0.01802 c -0.05659,-0.217128 -0.08719,-0.444735 -0.08719,-0.678629 V 55.85 c 4.2e-4,-1.472528 1.193784,-2.666312 2.667151,-2.666312 1.472948,0 2.665475,1.193364 2.666313,2.666312 v 0.0096 c -8.38e-4,0.238924 -0.03312,0.470723 -0.09306,0.690365 l 8.832657,-1.755045 0.0503,-8.613854 c 0.01383,-0.978333 -1.207197,-1.946186 -2.189301,-1.916845 z M 8.497627,54.478965 c 0,0.328626 -0.2653318,0.593959 -0.5943769,0.593959 H 6.419823 c -0.3294641,0 -0.5943768,-0.265333 -0.5943768,-0.593959 v -7.486298 c 0,-0.329882 0.2653318,-0.594376 0.5943768,-0.594376 h 1.483008 c 0.3294642,0 0.5943769,0.264913 0.5943769,0.594376 v 7.486298 z m 9.101763,-5.071904 c 0,0.329465 -0.264913,0.594378 -0.594378,0.594378 h -6.124009 c -0.329046,0 -0.593958,-0.264913 -0.593958,-0.594378 v -2.439544 c 0,-0.329463 0.264912,-0.594376 0.593958,-0.594376 h 6.124009 c 0.329465,0 0.594378,0.265331 0.594378,0.594376 v 2.439544 z m 8.749662,0 c 0,0.329465 -0.265331,0.594378 -0.594796,0.594378 h -6.12359 c -0.329464,0 -0.594377,-0.264913 -0.594377,-0.594378 v -2.439544 c 0,-0.329463 0.264913,-0.594376 0.594377,-0.594376 h 6.12359 c 0.329465,0 0.594796,0.265331 0.594796,0.594376 v 2.439544 z m 8.721161,0 c 0,0.329465 -0.264913,0.594378 -0.594378,0.594378 H 28.35476 c -0.328626,0 -0.594377,-0.264913 -0.594377,-0.594378 v -2.439544 c 0,-0.329463 0.265751,-0.594376 0.594377,-0.594376 h 6.121075 c 0.329465,0 0.594378,0.265331 0.594378,0.594376 v 2.439544 z m 8.675469,0 c 0,0.329465 -0.265752,0.594378 -0.594795,0.594378 h -6.12359 c -0.329465,0 -0.594796,-0.264913 -0.594796,-0.594378 v -2.439544 c 0,-0.329463 0.265331,-0.594376 0.594796,-0.594376 h 5.000645 c 1.006417,0 1.718159,0.621623 1.718159,1.254143 v 1.779777 z"
         inkscape:connector-curvature="0" />
    </g>
    <use
       x="0"
       y="0"
       xlink:href="#g5056"
       id="use5061"
       transform="translate(0,47.625)"
       width="96"
       height="96"
       style="fill:#808080;fill-opacity:1" />
    <use
       style="fill:#ffffff;fill-opacity:1;filter:url(#filter5065)"
       height="96"
       width="96"
       transform="translate(48,47.625)"
       id="use5063"
       xlink:href="#g5056"
       y="0"
       x="0" />
  </g>
</svg>
