<?xml version="1.0" encoding="UTF-8" standalone="no"?>
<svg
   xmlns:dc="http://purl.org/dc/elements/1.1/"
   xmlns:cc="http://creativecommons.org/ns#"
   xmlns:rdf="http://www.w3.org/1999/02/22-rdf-syntax-ns#"
   xmlns:svg="http://www.w3.org/2000/svg"
   xmlns="http://www.w3.org/2000/svg"
   xmlns:xlink="http://www.w3.org/1999/xlink"
   xmlns:sodipodi="http://sodipodi.sourceforge.net/DTD/sodipodi-0.dtd"
   xmlns:inkscape="http://www.inkscape.org/namespaces/inkscape"
   width="2481"
   height="2073"
   id="svg3004"
   version="1.1"
   inkscape:version="0.48.2 r9819"
   sodipodi:docname="map_marker.svg">
  <metadata
     id="metadata3022">
    <rdf:RDF>
      <cc:Work
         rdf:about="">
        <dc:format>image/svg+xml</dc:format>
        <dc:type
           rdf:resource="http://purl.org/dc/dcmitype/StillImage" />
        <dc:title>orange pin</dc:title>
      </cc:Work>
    </rdf:RDF>
  </metadata>
  <sodipodi:namedview
     pagecolor="#ffffff"
     bordercolor="#666666"
     borderopacity="1"
     objecttolerance="10"
     gridtolerance="10"
     guidetolerance="10"
     inkscape:pageopacity="0"
     inkscape:pageshadow="2"
     inkscape:window-width="1600"
     inkscape:window-height="876"
     id="namedview3020"
     showgrid="false"
     inkscape:zoom="0.26821032"
     inkscape:cx="839.97887"
     inkscape:cy="1173.3514"
     inkscape:window-x="0"
     inkscape:window-y="24"
     inkscape:window-maximized="1"
     inkscape:current-layer="svg3004" />
  <title
     id="title3006">orange pin</title>
  <defs
     id="defs3008">
    <filter
       x="-50%"
       y="-50%"
       height="200%"
       width="200%"
       id="svg_3_blur">
      <feGaussianBlur
         stdDeviation="7.7"
         id="feGaussianBlur3011" />
    </filter>
  </defs>
  <path
     style="fill-rule:evenodd;stroke-width:37;stroke-miterlimit:10"
     inkscape:connector-curvature="0"
     id="svg_2"
     clip-rule="evenodd"
     stroke-miterlimit="10"
     d="m 204.35056,617.3209 c -13.6823,-67.1656 -37.8061,-123.0616 -67.0254,-174.8635 -21.6734,-38.4252 -46.780878,-73.8927 -70.011768,-111.1567 -7.75493,-12.43884 -14.44748,-25.58008 -21.89923,-38.48977 -14.89996,-25.81341 -26.98059,-55.7425 -26.21293,-94.56548 0.75001,-37.93215 11.72062,-68.35996 27.54035,-93.2384 26.01882,-40.918775 69.601278,-74.467685 128.078378,-83.284275 47.8122,-7.20856 92.6394,4.97018 124.4286,23.55843 25.9754,15.19008 46.0933,35.48058 61.3829,59.393725 15.9602,24.95892 26.9509,54.44541 27.8721,92.90662 0.473,19.70497 -2.7529,37.95298 -7.2989,53.08941 -4.5989,15.32102 -11.9966,28.12802 -18.5791,41.80783 -12.8507,26.70353 -28.9592,51.17151 -45.1276,75.65181 -48.1549,72.9221 -93.3528,147.2878 -113.1474,249.1903 z" />
  <path
     style="opacity:0.25;fill:#000000;fill-rule:evenodd;filter:url(#svg_3_blur)"
     inkscape:connector-curvature="0"
     id="svg_3"
     clip-rule="evenodd"
     d="m 731.37903,1838.9554 c 131.60394,-120.87 211.31396,-235.9799 269.14097,-350.4899 42.89,-84.9501 70.5401,-169.1701 106.95,-254.0601 12.16,-28.34 28.51,-56.57 42.52,-85.2999 28.02,-57.4501 72.66,-118.14 169.03,-178.10007 94.1601,-58.58996 193.95,-93.75598 291.58,-114.69696 160.56,-34.44202 344.28,-37.29901 502.5899,15.59302 129.45,43.24396 204.6802,113.46393 233.7801,178.86391 23.78,53.44 21.4299,108.18 -1.0401,163.1 -23.4599,57.32 -69.5698,116.07 -161.1098,177.39 -46.9002,31.42 -98.9002,56.3401 -146.4101,74.87 -48.0901,18.76 -96.5999,30.39 -145.33,44.32 -95.12,27.19 -192.42,47.1501 -289.8901,67.08 -290.3199,59.34 -577.25,124.3201 -871.81087,261.43 z"
     transform="matrix(0.3529458,0,0,0.3529458,159.916,-39.87791)" />
  <g
     inkscape:groupmode="layer"
     id="layer1"
     inkscape:label="Slices"
     style="opacity:0.25" />
  <g
     id="g3915"
     transform="translate(-1066.3274,708.39929)">
    <use
       height="2073"
       width="2481"
       transform="translate(-457.23739,0)"
       id="use3913"
       xlink:href="#g3864"
       y="0"
       x="0" />
    <g
       transform="translate(572.99101,-690.94245)"
       id="g3836">
      <path
         style="fill-opacity:1;stroke:#000000;stroke-width:0.85391253;stroke-miterlimit:4;stroke-opacity:1"
         d="m 748.55083,863.30102 c -3.83429,0 -7.65572,1.46822 -10.59375,4.40625 l -5.65625,5.65625 c -5.87606,5.87606 -5.87606,15.34269 0,21.21875 l 14.34375,14.34375 -106.96875,0 c -8.31,0 -15,6.69 -15,15 l 0,22.71875 c 0,8.31 6.69,15 15,15 l 108.40625,0 -15.78125,15.78125 c -5.87606,5.87606 -5.87606,15.34265 0,21.21875 l 5.65625,5.65633 c 5.87605,5.876 15.3427,5.876 21.21875,0 l 57.125,-57.15633 c 3.07384,-3.07384 4.51709,-7.11547 4.375,-11.125 0.15082,-4.01968 -1.29319,-8.10569 -4.375,-11.1875 l -57.125,-57.125 c -2.93803,-2.93803 -6.79071,-4.40625 -10.625,-4.40625 z"
         id="rect3794"
         inkscape:connector-curvature="0" />
    </g>
  </g>
  <g
     transform="translate(1040.2284,-693.48562)"
     id="g3864">
    <g
       id="g3874">
      <use
         height="2073"
         width="2481"
         transform="translate(508.82311,732.91619)"
         id="use3866"
         xlink:href="#svg_2"
         y="0"
         x="0" />
      <g
         id="g3868">
        <circle
           transform="matrix(0.79873607,0,0,0.79873607,129.96645,415.98983)"
           r="183.33299"
           cy="651.047"
           cx="729.54602"
           clip-rule="evenodd"
           id="circle3870"
           sodipodi:cx="729.54602"
           sodipodi:cy="651.047"
           sodipodi:rx="183.33299"
           sodipodi:ry="183.33299"
           style="fill:#f1f1f1;fill-opacity:1;fill-rule:evenodd"
           d="m 912.87901,651.047 c 0,101.25201 -82.08097,183.33299 -183.33299,183.33299 -101.25202,0 -183.33299,-82.08098 -183.33299,-183.33299 0,-101.25202 82.08097,-183.333 183.33299,-183.333 101.25202,0 183.33299,82.08098 183.33299,183.333 z" />
      </g>
    </g>
  </g>
  <use
     x="0"
     y="0"
     xlink:href="#g3915"
     id="vehicle_forward_marker"
     transform="translate(466.05216,0)"
     width="2481"
     height="2073"
     style="fill:#668000"
     inkscape:export-filename="/home/kriomant/Dropbox/Projects/gortrans/src/main/res/drawable/vehicle_forward_marker.png"
     inkscape:export-xdpi="5.8499999"
     inkscape:export-ydpi="5.8499999"
     inkscape:label="#use3920" />
  <use
     height="2073"
     width="2481"
     transform="matrix(-1,0,0,1,1405.7076,0)"
     id="vehicle_backward_marker"
     xlink:href="#g3915"
     y="0"
     x="0"
     style="fill:#aa8800"
     inkscape:label="#use3922"
     inkscape:export-filename="/home/kriomant/Dropbox/Projects/gortrans/src/main/res/drawable/vehicle_backward_marker.png"
     inkscape:export-xdpi="5.8499999"
     inkscape:export-ydpi="5.8499999" />
  <g
     id="g3413"
     style="fill:#666666"
     inkscape:export-filename="/home/kriomant/Dropbox/Projects/gortrans/src/main/res/drawable/vehicle_stopped_marker.png"
     inkscape:export-xdpi="5.8499999"
     inkscape:export-ydpi="5.8499999">
    <use
       style="fill:#666666"
       inkscape:export-ydpi="5.8499999"
       inkscape:export-xdpi="5.8499999"
       inkscape:export-filename="/home/kriomant/Dropbox/Projects/gortrans/src/main/res/drawable/vehicle_stopped_marker.png"
       inkscape:label="#use3924"
       height="2073"
       width="2481"
       transform="translate(-63.383094,708.39929)"
       id="vehicle_stopped_marker"
       xlink:href="#g3864"
       y="0"
       x="0" />
    <text
       sodipodi:linespacing="125%"
       id="text3926"
       y="1053.9265"
       x="1601.9524"
       style="font-size:281.38369751000004726px;font-style:normal;font-variant:normal;font-weight:bold;font-stretch:normal;line-height:125%;letter-spacing:0px;word-spacing:0px;fill:#666666;fill-opacity:1;stroke:none;font-family:Arial;-inkscape-font-specification:Arial Bold"
       xml:space="preserve"><tspan
         y="1053.9265"
         x="1601.9524"
         id="tspan3928"
         sodipodi:role="line">?</tspan></text>
  </g>
</svg>
