<?xml version="1.0" encoding="UTF-8" standalone="no"?>
<!-- Created with Inkscape (http://www.inkscape.org/) -->

<svg
   xmlns:dc="http://purl.org/dc/elements/1.1/"
   xmlns:cc="http://creativecommons.org/ns#"
   xmlns:rdf="http://www.w3.org/1999/02/22-rdf-syntax-ns#"
   xmlns:svg="http://www.w3.org/2000/svg"
   xmlns="http://www.w3.org/2000/svg"
   xmlns:xlink="http://www.w3.org/1999/xlink"
   xmlns:sodipodi="http://sodipodi.sourceforge.net/DTD/sodipodi-0.dtd"
   xmlns:inkscape="http://www.inkscape.org/namespaces/inkscape"
   width="96"
   height="96"
   id="svg2"
   version="1.1"
   inkscape:version="0.48.2 r9819"
   sodipodi:docname="minibus.svg">
  <defs
     id="defs4">
    <filter
       id="filter4559"
       inkscape:label="Drop shadow"
       width="1.5"
       height="1.5"
       x="-0.25"
       y="-0.25"
       color-interpolation-filters="sRGB">
      <feGaussianBlur
         id="feGaussianBlur4561"
         in="SourceAlpha"
         stdDeviation="6"
         result="blur" />
      <feColorMatrix
         id="feColorMatrix4563"
         result="bluralpha"
         type="matrix"
         values="1 0 0 0 0 0 1 0 0 0 0 0 1 0 0 0 0 0 0.25 0 " />
      <feOffset
         id="feOffset4565"
         in="bluralpha"
         dx="-2.41474e-15"
         dy="-2.41474e-15"
         result="offsetBlur" />
      <feMerge
         id="feMerge4567">
        <feMergeNode
           id="feMergeNode4569"
           in="offsetBlur" />
        <feMergeNode
           id="feMergeNode4571"
           in="SourceGraphic" />
      </feMerge>
    </filter>
    <filter
       id="filter4723"
       inkscape:label="Drop shadow"
       width="1.5"
       height="1.5"
       x="-.25"
       y="-.25">
      <feGaussianBlur
         id="feGaussianBlur4725"
         in="SourceAlpha"
         stdDeviation="3"
         result="blur" />
      <feColorMatrix
         id="feColorMatrix4727"
         result="bluralpha"
         type="matrix"
         values="1 0 0 0 0 0 1 0 0 0 0 0 1 0 0 0 0 0 0.25 0 " />
      <feOffset
         id="feOffset4729"
         in="bluralpha"
         dx="-2.41474e-15"
         dy="-2.41474e-15"
         result="offsetBlur" />
      <feMerge
         id="feMerge4731">
        <feMergeNode
           id="feMergeNode4733"
           in="offsetBlur" />
        <feMergeNode
           id="feMergeNode4735"
           in="SourceGraphic" />
      </feMerge>
    </filter>
  </defs>
  <sodipodi:namedview
     id="base"
     pagecolor="#ffffff"
     bordercolor="#666666"
     borderopacity="1.0"
     inkscape:pageopacity="0.0"
     inkscape:pageshadow="2"
     inkscape:zoom="8"
     inkscape:cx="54.064783"
     inkscape:cy="35.69309"
     inkscape:document-units="px"
     inkscape:current-layer="layer3"
     showgrid="false"
     inkscape:window-width="1600"
     inkscape:window-height="876"
     inkscape:window-x="0"
     inkscape:window-y="24"
     inkscape:window-maximized="1"
     showguides="true"
     inkscape:guide-bbox="true"
     inkscape:snap-object-midpoints="true"
     fit-margin-top="0"
     fit-margin-left="0"
     fit-margin-right="0"
     fit-margin-bottom="0"
     inkscape:snap-to-guides="false">
    <sodipodi:guide
       orientation="1,0"
       position="197.48736,91.367667"
       id="guide3880" />
    <sodipodi:guide
       orientation="1,0"
       position="48,99.875"
       id="guide4579" />
    <sodipodi:guide
       orientation="1,0"
       position="3,100.5"
       id="guide4581" />
    <sodipodi:guide
       orientation="1,0"
       position="45,92.125"
       id="guide4583" />
    <sodipodi:guide
       orientation="0,1"
       position="66.75,48"
       id="guide4585" />
    <sodipodi:guide
       orientation="0,1"
       position="26.5,45"
       id="guide4587" />
    <sodipodi:guide
       orientation="0,1"
       position="30.375,3"
       id="guide4589" />
    <sodipodi:guide
       orientation="0,1"
       position="34.125,51"
       id="guide4591" />
    <sodipodi:guide
       orientation="0,1"
       position="26.75,93"
       id="guide4595" />
    <sodipodi:guide
       orientation="1,0"
       position="93,107.375"
       id="guide4597" />
    <sodipodi:guide
       orientation="1,0"
       position="51,37.125"
       id="guide4737" />
  </sodipodi:namedview>
  <metadata
     id="metadata7">
    <rdf:RDF>
      <cc:Work
         rdf:about="">
        <dc:format>image/svg+xml</dc:format>
        <dc:type
           rdf:resource="http://purl.org/dc/dcmitype/StillImage" />
        <dc:title></dc:title>
      </cc:Work>
    </rdf:RDF>
  </metadata>
  <g
     inkscape:groupmode="layer"
     id="layer3"
     inkscape:label="Слой#1"
     style="opacity:0">
    <rect
       style="fill:#ff0000;fill-opacity:1;stroke:none"
       id="tab_minibus_inactive"
       width="48"
       height="48"
       x="0"
       y="48"
       inkscape:label="#rect4740"
       inkscape:export-filename="/home/kriomant/Dropbox/Projects/gortrans/src/main/res/drawable/tab_minibus_inactive.png"
       inkscape:export-xdpi="90"
       inkscape:export-ydpi="90" />
    <rect
       y="48"
       x="48"
       height="48"
       width="48"
       id="tab_minibus_active"
       style="fill:#00ff00;fill-opacity:1;stroke:none"
       inkscape:label="#rect4742"
       inkscape:export-filename="/home/kriomant/Dropbox/Projects/gortrans/src/main/res/drawable/tab_minibus_active.png"
       inkscape:export-xdpi="90"
       inkscape:export-ydpi="90" />
  </g>
  <g
     inkscape:groupmode="layer"
     id="layer2"
     inkscape:label="Слой"
     style="display:inline"
     transform="translate(-0.25,-14.343749)">
    <g
       id="g3942"
       style="fill-opacity:1;stroke:none"
       transform="matrix(0.17281007,0,0,0.17281007,3.1952962,28.557454)">
      <path
         inkscape:connector-curvature="0"
         id="path3884"
         d="m 66,77.59375 c -9.043663,0 -16.375,7.331337 -16.375,16.375 0,9.04366 7.331337,16.375 16.375,16.375 9.043663,0 16.375,-7.33134 16.375,-16.375 0,-9.043663 -7.331337,-16.375 -16.375,-16.375 z m 0,8.625 c 4.280207,0 7.75,3.469793 7.75,7.75 0,4.280207 -3.469793,7.75 -7.75,7.75 -4.280207,0 -7.75,-3.469793 -7.75,-7.75 0,-4.280207 3.469793,-7.75 7.75,-7.75 z"
         style="fill-opacity:1;stroke:none" />
      <path
         id="path3886"
         transform="translate(0.25,0.36218151)"
         d="M 10.25,0.5 C 0.74529278,0.67640849 3.75,55.833333 0.5,83.5 l 3,0 c 3.25,8.117771 12.152448,6.75241 42.75,10.125 2.214037,-24.9893 36.039431,-26.299531 39.25,0 l 93.25,0 c -0.81361,-25.465806 37.68465,-27.311921 38.25,0 l 26.25,0 -2.75,-5.375 c 1.64579,-2.62203 3.39845,-5.228793 0.5,-8.5 -0.35574,-10.410876 -9.3097,-26.596709 -29.25,-34.5 -0.4226,-0.167497 -50.33253,-48.4807242 -60,-44.5 L 10.25,0.5 z m 84.5,22.75 49.25,0 c 1.108,0 2,0.892 2,2 l 0,62.25 c 0,1.108 -0.892,2 -2,2 l -49.25,0 c -1.108,0 -2,-0.892 -2,-2 l 0,-62.25 c 0,-1.108 0.892,-2 2,-2 z m 61.25,0.5 c 25.5,1.25 27.84906,3.59921 42.25,28.5 -14.9589,0.442805 -24.75,-1 -39.75,-1.75 -4,-9 -2.5,-26.75 -2.5,-26.75 z m -145.75,1 20.25,0 c 1.108,0 2,0.892 2,2 l 0,18.25 c 0,1.108 -0.892,2 -2,2 l -20.25,0 c -1.108,0 -2,-0.892 -2,-2 l 0,-18.25 c 0,-1.108 0.892,-2 2,-2 z m 30,0 43.75,0 c 1.108,0 2,0.892 2,2 L 86,45 c 0,1.108 -0.892,2 -2,2 l -43.75,0 c -1.108,0 -2,-0.892 -2,-2 l 0,-18.25 c 0,-1.108 0.892,-2 2,-2 z m 193.5,45.8125 c 2.47803,0.03662 4.25,0.5625 4.25,0.5625 1.69975,0.485643 3.625,7.375 2.125,8.125 -1.5,0.75 -7.75,0.75 -10.125,-0.75 -1.79355,-1.13277 -1.25,-7.25 -1.25,-7.25 1.78125,-0.5625 3.51318,-0.709473 5,-0.6875 z"
         style="fill-opacity:1;stroke:none"
         inkscape:connector-curvature="0" />
      <path
         inkscape:connector-curvature="0"
         id="path3888"
         d="m 198.25,77.59375 c -9.04366,0 -16.375,7.331337 -16.375,16.375 0,9.04366 7.33134,16.375 16.375,16.375 9.04366,0 16.375,-7.33134 16.375,-16.375 0,-9.043663 -7.33134,-16.375 -16.375,-16.375 z m 0,8.625 c 4.28021,0 7.75,3.469793 7.75,7.75 0,4.280207 -3.46979,7.75 -7.75,7.75 -4.28021,0 -7.75,-3.469793 -7.75,-7.75 0,-4.280207 3.46979,-7.75 7.75,-7.75 z"
         style="fill-opacity:1;stroke:none" />
    </g>
    <use
       x="0"
       y="0"
       xlink:href="#g3942"
       id="use4027"
       transform="translate(0,47.276758)"
       width="243.75"
       height="109.98157"
       style="fill:#808080;fill-opacity:1" />
    <use
       style="fill:#ffffff;fill-opacity:1;filter:url(#filter4723)"
       height="109.98157"
       width="243.75"
       transform="translate(48.124997,47.276758)"
       id="use4029"
       xlink:href="#g3942"
       y="0"
       x="0" />
  </g>
</svg>
