<?xml version="1.0" encoding="UTF-8" standalone="no"?>
<!-- Created with Inkscape (http://www.inkscape.org/) -->

<svg
   xmlns:dc="http://purl.org/dc/elements/1.1/"
   xmlns:cc="http://creativecommons.org/ns#"
   xmlns:rdf="http://www.w3.org/1999/02/22-rdf-syntax-ns#"
   xmlns:svg="http://www.w3.org/2000/svg"
   xmlns="http://www.w3.org/2000/svg"
   xmlns:sodipodi="http://sodipodi.sourceforge.net/DTD/sodipodi-0.dtd"
   xmlns:inkscape="http://www.inkscape.org/namespaces/inkscape"
   width="267.71875"
   height="267.71875"
   id="svg2"
   version="1.1"
   inkscape:version="0.48.2 r9819"
   sodipodi:docname="my_location.svg"
   inkscape:export-filename="/home/kriomant/Dropbox/Projects/gortrans/src/main/res/drawable/show_my_location.png"
   inkscape:export-xdpi="8.0681686"
   inkscape:export-ydpi="8.0681686">
  <defs
     id="defs4" />
  <sodipodi:namedview
     id="base"
     pagecolor="#ffffff"
     bordercolor="#666666"
     borderopacity="1.0"
     inkscape:pageopacity="0.0"
     inkscape:pageshadow="2"
     inkscape:zoom="1"
     inkscape:cx="419.38228"
     inkscape:cy="-38.435521"
     inkscape:document-units="px"
     inkscape:current-layer="layer1"
     showgrid="false"
     fit-margin-top="0"
     fit-margin-left="0"
     fit-margin-right="0"
     fit-margin-bottom="0"
     inkscape:window-width="1600"
     inkscape:window-height="876"
     inkscape:window-x="0"
     inkscape:window-y="24"
     inkscape:window-maximized="1" />
  <metadata
     id="metadata7">
    <rdf:RDF>
      <cc:Work
         rdf:about="">
        <dc:format>image/svg+xml</dc:format>
        <dc:type
           rdf:resource="http://purl.org/dc/dcmitype/StillImage" />
        <dc:title></dc:title>
      </cc:Work>
    </rdf:RDF>
  </metadata>
  <g
     inkscape:label="Layer 1"
     inkscape:groupmode="layer"
     id="layer1"
     style="display:inline"
     transform="translate(-4.71875,-14.21875)">
    <path
       style="fill:#000000;fill-opacity:1;stroke:#000000;stroke-width:2;stroke-linecap:round;stroke-linejoin:round;stroke-miterlimit:4;stroke-opacity:0.39370081;stroke-dasharray:none"
       d="m 138.5625,38.0625 c -60.751322,0 -110,49.248678 -110,110 0,60.75132 49.248678,110 110,110 60.75132,0 110,-49.24868 110,-110 0,-60.751322 -49.24868,-110 -110,-110 z m 0,27.15625 c 45.76073,0 82.875,37.08302 82.875,82.84375 0,45.76073 -37.11427,82.875 -82.875,82.875 -45.760735,0 -82.84375,-37.11427 -82.84375,-82.875 0,-45.76073 37.083015,-82.84375 82.84375,-82.84375 z"
       id="path3822"
       inkscape:connector-curvature="0" />
    <path
       sodipodi:type="arc"
       style="fill:#000000;fill-opacity:1;stroke:#000000;stroke-width:2;stroke-linecap:round;stroke-linejoin:round;stroke-miterlimit:4;stroke-opacity:0.39370081;stroke-dasharray:none"
       id="path3818"
       sodipodi:cx="134.28572"
       sodipodi:cy="148.07646"
       sodipodi:rx="62.857143"
       sodipodi:ry="62.857143"
       d="m 197.14286,148.07646 c 0,34.71504 -28.1421,62.85715 -62.85714,62.85715 -34.715041,0 -62.857143,-28.14211 -62.857143,-62.85715 0,-34.71504 28.142102,-62.857142 62.857143,-62.857142 34.71504,0 62.85714,28.142102 62.85714,62.857142 z"
       transform="translate(4.2857122,1.5258789e-5)" />
    <path
       style="fill:#000000;fill-opacity:1;stroke:#000000;stroke-width:2;stroke-linecap:round;stroke-linejoin:round;stroke-miterlimit:4;stroke-opacity:0.39370081;stroke-dasharray:none"
       d="m 130,15.21875 c -5.54,0 -10,4.46 -10,10 l 0,42.09375 c 5.96635,-1.365234 12.18222,-2.09375 18.5625,-2.09375 6.39012,0 12.61895,0.724418 18.59375,2.09375 l 0,-42.09375 c 0,-5.54 -4.46,-10 -10,-10 l -17.15625,0 z M 15.71875,129.5 c -5.54,0 -10,4.46 -10,10 l 0,17.15625 c 0,5.54 4.46,10 10,10 l 42.09375,0 c -1.369332,-5.9748 -2.09375,-12.20363 -2.09375,-18.59375 0,-6.39012 0.724418,-12.5877 2.09375,-18.5625 l -42.09375,0 z m 203.625,0 c 1.36933,5.9748 2.09375,12.17238 2.09375,18.5625 0,6.39012 -0.72442,12.61895 -2.09375,18.59375 l 42.09375,0 c 5.54,0 10,-4.46 10,-10 l 0,-17.15625 c 0,-5.54 -4.46,-10 -10,-10 l -42.09375,0 z M 120,228.84375 l 0,42.09375 c 0,5.54 4.46,10 10,10 l 17.15625,0 c 5.54,0 10,-4.46 10,-10 l 0,-42.09375 c -5.9748,1.36933 -12.20363,2.09375 -18.59375,2.09375 -6.38028,0 -12.59615,-0.72852 -18.5625,-2.09375 z"
       id="rect3824"
       inkscape:connector-curvature="0" />
  </g>
</svg>
