<?xml version="1.0" encoding="UTF-8" standalone="no"?>
<!-- Created with Inkscape (http://www.inkscape.org/) -->

<svg
   xmlns:dc="http://purl.org/dc/elements/1.1/"
   xmlns:cc="http://creativecommons.org/ns#"
   xmlns:rdf="http://www.w3.org/1999/02/22-rdf-syntax-ns#"
   xmlns:svg="http://www.w3.org/2000/svg"
   xmlns="http://www.w3.org/2000/svg"
   xmlns:xlink="http://www.w3.org/1999/xlink"
   xmlns:sodipodi="http://sodipodi.sourceforge.net/DTD/sodipodi-0.dtd"
   xmlns:inkscape="http://www.inkscape.org/namespaces/inkscape"
   width="96"
   height="96"
   id="svg2"
   version="1.1"
   inkscape:version="0.48.2 r9819"
   sodipodi:docname="minibus.svg">
  <defs
     id="defs4">
    <filter
       id="filter4559"
       inkscape:label="Drop shadow"
       width="1.5"
       height="1.5"
       x="-0.25"
       y="-0.25"
       color-interpolation-filters="sRGB">
      <feGaussianBlur
         id="feGaussianBlur4561"
         in="SourceAlpha"
         stdDeviation="6"
         result="blur" />
      <feColorMatrix
         id="feColorMatrix4563"
         result="bluralpha"
         type="matrix"
         values="1 0 0 0 0 0 1 0 0 0 0 0 1 0 0 0 0 0 0.25 0 " />
      <feOffset
         id="feOffset4565"
         in="bluralpha"
         dx="-2.41474e-15"
         dy="-2.41474e-15"
         result="offsetBlur" />
      <feMerge
         id="feMerge4567">
        <feMergeNode
           id="feMergeNode4569"
           in="offsetBlur" />
        <feMergeNode
           id="feMergeNode4571"
           in="SourceGraphic" />
      </feMerge>
    </filter>
    <filter
       id="filter4723"
       inkscape:label="Drop shadow"
       width="1.5"
       height="1.5"
       x="-.25"
       y="-.25">
      <feGaussianBlur
         id="feGaussianBlur4725"
         in="SourceAlpha"
         stdDeviation="3"
         result="blur" />
      <feColorMatrix
         id="feColorMatrix4727"
         result="bluralpha"
         type="matrix"
         values="1 0 0 0 0 0 1 0 0 0 0 0 1 0 0 0 0 0 0.25 0 " />
      <feOffset
         id="feOffset4729"
         in="bluralpha"
         dx="-2.41474e-15"
         dy="-2.41474e-15"
         result="offsetBlur" />
      <feMerge
         id="feMerge4731">
        <feMergeNode
           id="feMergeNode4733"
           in="offsetBlur" />
        <feMergeNode
           id="feMergeNode4735"
           in="SourceGraphic" />
      </feMerge>
    </filter>
    <filter
       id="filter4886"
       inkscape:label="Drop shadow"
       width="1.5"
       height="1.5"
       x="-.25"
       y="-.25">
      <feGaussianBlur
         id="feGaussianBlur4888"
         in="SourceAlpha"
         stdDeviation="3"
         result="blur" />
      <feColorMatrix
         id="feColorMatrix4890"
         result="bluralpha"
         type="matrix"
         values="1 0 0 0 0 0 1 0 0 0 0 0 1 0 0 0 0 0 0.25 0 " />
      <feOffset
         id="feOffset4892"
         in="bluralpha"
         dx="-2.41474e-15"
         dy="-2.41474e-15"
         result="offsetBlur" />
      <feMerge
         id="feMerge4894">
        <feMergeNode
           id="feMergeNode4896"
           in="offsetBlur" />
        <feMergeNode
           id="feMergeNode4898"
           in="SourceGraphic" />
      </feMerge>
    </filter>
  </defs>
  <sodipodi:namedview
     id="base"
     pagecolor="#ffffff"
     bordercolor="#666666"
     borderopacity="1.0"
     inkscape:pageopacity="0.0"
     inkscape:pageshadow="2"
     inkscape:zoom="8"
     inkscape:cx="54.064783"
     inkscape:cy="49.437303"
     inkscape:document-units="px"
     inkscape:current-layer="layer3"
     showgrid="false"
     inkscape:window-width="1600"
     inkscape:window-height="876"
     inkscape:window-x="0"
     inkscape:window-y="24"
     inkscape:window-maximized="1"
     showguides="true"
     inkscape:guide-bbox="true"
     inkscape:snap-object-midpoints="true"
     fit-margin-top="0"
     fit-margin-left="0"
     fit-margin-right="0"
     fit-margin-bottom="0"
     inkscape:snap-to-guides="false">
    <sodipodi:guide
       orientation="1,0"
       position="197.48736,91.367667"
       id="guide3880" />
    <sodipodi:guide
       orientation="1,0"
       position="48,99.875"
       id="guide4579" />
    <sodipodi:guide
       orientation="1,0"
       position="3,100.5"
       id="guide4581" />
    <sodipodi:guide
       orientation="1,0"
       position="45,92.125"
       id="guide4583" />
    <sodipodi:guide
       orientation="0,1"
       position="66.75,48"
       id="guide4585" />
    <sodipodi:guide
       orientation="0,1"
       position="26.5,45"
       id="guide4587" />
    <sodipodi:guide
       orientation="0,1"
       position="30.375,3"
       id="guide4589" />
    <sodipodi:guide
       orientation="0,1"
       position="34.125,51"
       id="guide4591" />
    <sodipodi:guide
       orientation="0,1"
       position="26.75,93"
       id="guide4595" />
    <sodipodi:guide
       orientation="1,0"
       position="93,107.375"
       id="guide4597" />
    <sodipodi:guide
       orientation="1,0"
       position="51,37.125"
       id="guide4737" />
    <sodipodi:guide
       orientation="0,1"
       position="45,18.25"
       id="guide4880" />
  </sodipodi:namedview>
  <metadata
     id="metadata7">
    <rdf:RDF>
      <cc:Work
         rdf:about="">
        <dc:format>image/svg+xml</dc:format>
        <dc:type
           rdf:resource="http://purl.org/dc/dcmitype/StillImage" />
        <dc:title></dc:title>
      </cc:Work>
    </rdf:RDF>
  </metadata>
  <g
     inkscape:groupmode="layer"
     id="layer3"
     inkscape:label="Слой#1"
     style="opacity:0">
    <rect
       style="fill:#ff0000;fill-opacity:1;stroke:none"
       id="tab_tram_inactive"
       width="48"
       height="48"
       x="0"
       y="48"
       inkscape:label="#rect4740"
       inkscape:export-filename="/home/kriomant/Dropbox/Projects/gortrans/src/main/res/drawable/tab_tram_inactive.png"
       inkscape:export-xdpi="90"
       inkscape:export-ydpi="90" />
    <rect
       y="48"
       x="48"
       height="48"
       width="48"
       id="tab_tram_active"
       style="fill:#00ff00;fill-opacity:1;stroke:none"
       inkscape:label="#rect4742"
       inkscape:export-filename="/home/kriomant/Dropbox/Projects/gortrans/src/main/res/drawable/tab_tram_active.png"
       inkscape:export-xdpi="90"
       inkscape:export-ydpi="90" />
  </g>
  <g
     inkscape:groupmode="layer"
     id="layer2"
     inkscape:label="Слой"
     style="display:inline"
     transform="translate(-0.25,-14.343749)">
    <g
       id="g4871"
       transform="matrix(0.85698896,0,0,0.85698896,-6.7124968,13.813271)">
      <path
         d="m 16.135739,35.590204 c 0.02061,3.220484 4.632942,3.220484 4.632942,0.02896"
         id="path29926"
         inkscape:connector-curvature="0" />
      <path
         d="m 25.691674,35.589223 c 0.02061,3.220484 4.632942,3.220484 4.632942,0.02896"
         id="path30815"
         inkscape:connector-curvature="0" />
      <path
         d="m 21.268293,37.059593 h 3.88009 C 24.95109,36.717521 24.860787,36.354836 24.873547,35.611798 h -3.265145 c -0.02307,0.753344 -0.140853,1.103269 -0.340109,1.447795 z"
         id="path30821"
         inkscape:connector-curvature="0" />
      <path
         d="m 51.633698,35.61916 c 0,3.191037 4.61233,3.191037 4.632942,-0.02896"
         id="path29926_1_"
         inkscape:connector-curvature="0" />
      <path
         d="m 42.078254,35.618179 c 0,3.191037 4.611839,3.191037 4.632452,-0.02896"
         id="path30815_1_"
         inkscape:connector-curvature="0" />
      <path
         d="m 50.793977,35.611798 h -3.264654 c 0.01227,0.743038 -0.07754,1.105723 -0.275326,1.447795 h 3.880089 c -0.198765,-0.344526 -0.317533,-0.694451 -0.340109,-1.447795 z"
         id="path30821_1_"
         inkscape:connector-curvature="0" />
      <path
         id="path4795"
         d="m 57.598611,23.393394 h 0.900087 V 21.92695 h -8.237215 l -0.408818,-0.490287 h -3.824631 l 5.566892,-3.660221 -6.411521,-4.223143 -6.27165,4.219708 5.439291,3.663656 H 40.666777 L 40.199556,21.92695 H 36.16389 32.128225 l -0.467221,-0.490287 h -3.684269 l 5.439291,-3.663656 -6.27165,-4.219708 -6.411031,4.222652 5.566893,3.660221 h -3.824631 l -0.408818,0.490287 h -8.237215 v 1.466444 H 14.72966 L 11.625,29.570324 v 3.794203 c 0,0.685126 0.80782,1.399207 1.425219,1.397244 H 36.16389 59.277562 c 0.617399,0.002 1.425219,-0.712118 1.425219,-1.397244 v -3.794203 l -3.10417,-6.17693 z m -40.052377,6.305023 h -2.679647 c -0.617398,0 -1.659319,-0.740584 -1.285837,-2.134884 l 2.052923,-4.17063 h 1.918451 l -0.0059,6.305514 z m 4.538223,3.300971 c -0.08245,0.469184 -0.410291,0.555561 -0.673347,0.80733 h -2.229113 c -0.264039,-0.258149 -0.598258,-0.341582 -0.681691,-0.815673 l -0.0044,-8.967983 c 0,-0.2022 0.282198,-0.400965 0.609056,-0.630159 h 2.362604 c 0.331766,0.232629 0.620834,0.433848 0.620834,0.638502 l -0.0039,8.967983 z m -0.385752,-15.223437 5.442726,-3.585132 5.324449,3.582188 -5.320523,3.583659 -5.446652,-3.580715 z m 9.424897,11.120044 c -0.08196,0.462313 -0.401456,0.553106 -0.66255,0.797514 h -6.675559 c -0.264039,-0.255695 -0.60562,-0.320478 -0.689052,-0.792606 l -0.04368,4.9e-4 0.01031,-4.888147 c 0,-0.180606 0.297411,-0.389677 0.62476,-0.619852 h 6.841442 c 0.322441,0.226249 0.598749,0.423051 0.598749,0.622797 l -0.0044,4.879804 z m 9.100493,0.01227 c -0.07558,0.466239 -0.405873,0.541819 -0.667458,0.785245 H 36.16389 32.771143 c -0.262075,-0.243426 -0.591878,-0.319006 -0.667457,-0.785245 l -9.82e-4,-4.910722 c 0,-0.17619 0.284651,-0.380353 0.602675,-0.604148 h 3.458511 3.459002 c 0.318024,0.223795 0.602676,0.427958 0.602676,0.604148 l -0.0015,4.910722 z m -0.362194,-11.135257 5.32494,-3.582188 5.442725,3.585132 -5.446652,3.580715 -5.321013,-3.583659 z m 9.369439,11.127405 c -0.08343,0.472128 -0.425013,0.536911 -0.689052,0.792606 h -6.67605 c -0.260603,-0.244407 -0.58059,-0.33471 -0.66255,-0.797514 l -0.0044,-4.879804 c 0,-0.199746 0.276798,-0.396548 0.59924,-0.622797 h 6.840951 c 0.327349,0.229684 0.624761,0.439246 0.624761,0.619853 l 0.01031,4.888147 -0.04319,-4.91e-4 z m 4.596135,4.090142 c -0.08392,0.474092 -0.418143,0.557524 -0.681691,0.815673 h -2.229113 c -0.262566,-0.251769 -0.590405,-0.338146 -0.672856,-0.80733 l -0.0044,-8.967001 c 0,-0.204654 0.289068,-0.405873 0.620834,-0.638502 h 2.362604 c 0.326368,0.229193 0.609056,0.427958 0.609056,0.629668 l -0.0044,8.967492 z m 3.634209,-3.292137 h -2.679647 l -0.0064,-6.305023 h 1.918451 l 2.052923,4.17063 c 0.373482,1.3943 -0.66893,2.134393 -1.285347,2.134393 z"
         inkscape:connector-curvature="0" />
    </g>
    <use
       x="0"
       y="0"
       xlink:href="#g4871"
       id="use4882"
       transform="translate(0,48.5)"
       width="96"
       height="96"
       style="fill:#808080;fill-opacity:1" />
    <use
       style="fill:#ffffff;fill-opacity:1;filter:url(#filter4886)"
       height="96"
       width="96"
       transform="translate(48,48.5)"
       id="use4884"
       xlink:href="#g4871"
       y="0"
       x="0" />
  </g>
</svg>
