<?xml version="1.0" encoding="UTF-8" standalone="no"?>
<!-- Created with Inkscape (http://www.inkscape.org/) -->

<svg
   xmlns:dc="http://purl.org/dc/elements/1.1/"
   xmlns:cc="http://creativecommons.org/ns#"
   xmlns:rdf="http://www.w3.org/1999/02/22-rdf-syntax-ns#"
   xmlns:svg="http://www.w3.org/2000/svg"
   xmlns="http://www.w3.org/2000/svg"
   xmlns:xlink="http://www.w3.org/1999/xlink"
   xmlns:sodipodi="http://sodipodi.sourceforge.net/DTD/sodipodi-0.dtd"
   xmlns:inkscape="http://www.inkscape.org/namespaces/inkscape"
   width="96"
   height="96"
   id="svg2"
   version="1.1"
   inkscape:version="0.48.2 r9819"
   sodipodi:docname="bus.svg">
  <defs
     id="defs4">
    <filter
       id="filter4559"
       inkscape:label="Drop shadow"
       width="1.5"
       height="1.5"
       x="-0.25"
       y="-0.25"
       color-interpolation-filters="sRGB">
      <feGaussianBlur
         id="feGaussianBlur4561"
         in="SourceAlpha"
         stdDeviation="6"
         result="blur" />
      <feColorMatrix
         id="feColorMatrix4563"
         result="bluralpha"
         type="matrix"
         values="1 0 0 0 0 0 1 0 0 0 0 0 1 0 0 0 0 0 0.25 0 " />
      <feOffset
         id="feOffset4565"
         in="bluralpha"
         dx="-2.41474e-15"
         dy="-2.41474e-15"
         result="offsetBlur" />
      <feMerge
         id="feMerge4567">
        <feMergeNode
           id="feMergeNode4569"
           in="offsetBlur" />
        <feMergeNode
           id="feMergeNode4571"
           in="SourceGraphic" />
      </feMerge>
    </filter>
    <filter
       id="filter4723"
       inkscape:label="Drop shadow"
       width="1.5"
       height="1.5"
       x="-.25"
       y="-.25">
      <feGaussianBlur
         id="feGaussianBlur4725"
         in="SourceAlpha"
         stdDeviation="3"
         result="blur" />
      <feColorMatrix
         id="feColorMatrix4727"
         result="bluralpha"
         type="matrix"
         values="1 0 0 0 0 0 1 0 0 0 0 0 1 0 0 0 0 0 0.25 0 " />
      <feOffset
         id="feOffset4729"
         in="bluralpha"
         dx="-2.41474e-15"
         dy="-2.41474e-15"
         result="offsetBlur" />
      <feMerge
         id="feMerge4731">
        <feMergeNode
           id="feMergeNode4733"
           in="offsetBlur" />
        <feMergeNode
           id="feMergeNode4735"
           in="SourceGraphic" />
      </feMerge>
    </filter>
    <filter
       id="filter4886"
       inkscape:label="Drop shadow"
       width="1.5"
       height="1.5"
       x="-.25"
       y="-.25">
      <feGaussianBlur
         id="feGaussianBlur4888"
         in="SourceAlpha"
         stdDeviation="3"
         result="blur" />
      <feColorMatrix
         id="feColorMatrix4890"
         result="bluralpha"
         type="matrix"
         values="1 0 0 0 0 0 1 0 0 0 0 0 1 0 0 0 0 0 0.25 0 " />
      <feOffset
         id="feOffset4892"
         in="bluralpha"
         dx="-2.41474e-15"
         dy="-2.41474e-15"
         result="offsetBlur" />
      <feMerge
         id="feMerge4894">
        <feMergeNode
           id="feMergeNode4896"
           in="offsetBlur" />
        <feMergeNode
           id="feMergeNode4898"
           in="SourceGraphic" />
      </feMerge>
    </filter>
    <filter
       id="filter5065"
       inkscape:label="Drop shadow"
       width="1.5"
       height="1.5"
       x="-.25"
       y="-.25">
      <feGaussianBlur
         id="feGaussianBlur5067"
         in="SourceAlpha"
         stdDeviation="3"
         result="blur" />
      <feColorMatrix
         id="feColorMatrix5069"
         result="bluralpha"
         type="matrix"
         values="1 0 0 0 0 0 1 0 0 0 0 0 1 0 0 0 0 0 0.25 0 " />
      <feOffset
         id="feOffset5071"
         in="bluralpha"
         dx="-2.41474e-15"
         dy="-2.41474e-15"
         result="offsetBlur" />
      <feMerge
         id="feMerge5073">
        <feMergeNode
           id="feMergeNode5075"
           in="offsetBlur" />
        <feMergeNode
           id="feMergeNode5077"
           in="SourceGraphic" />
      </feMerge>
    </filter>
    <filter
       id="filter5241"
       inkscape:label="Drop shadow"
       width="1.5"
       height="1.5"
       x="-.25"
       y="-.25">
      <feGaussianBlur
         id="feGaussianBlur5243"
         in="SourceAlpha"
         stdDeviation="3"
         result="blur" />
      <feColorMatrix
         id="feColorMatrix5245"
         result="bluralpha"
         type="matrix"
         values="1 0 0 0 0 0 1 0 0 0 0 0 1 0 0 0 0 0 0.25 0 " />
      <feOffset
         id="feOffset5247"
         in="bluralpha"
         dx="-2.41474e-15"
         dy="-2.41474e-15"
         result="offsetBlur" />
      <feMerge
         id="feMerge5249">
        <feMergeNode
           id="feMergeNode5251"
           in="offsetBlur" />
        <feMergeNode
           id="feMergeNode5253"
           in="SourceGraphic" />
      </feMerge>
    </filter>
  </defs>
  <sodipodi:namedview
     id="base"
     pagecolor="#ffffff"
     bordercolor="#666666"
     borderopacity="1.0"
     inkscape:pageopacity="0.0"
     inkscape:pageshadow="2"
     inkscape:zoom="5.6568542"
     inkscape:cx="24.456146"
     inkscape:cy="71.687303"
     inkscape:document-units="px"
     inkscape:current-layer="layer3"
     showgrid="false"
     inkscape:window-width="1600"
     inkscape:window-height="876"
     inkscape:window-x="0"
     inkscape:window-y="24"
     inkscape:window-maximized="1"
     showguides="true"
     inkscape:guide-bbox="true"
     inkscape:snap-object-midpoints="true"
     fit-margin-top="0"
     fit-margin-left="0"
     fit-margin-right="0"
     fit-margin-bottom="0"
     inkscape:snap-to-guides="false"
     inkscape:snap-global="false">
    <sodipodi:guide
       orientation="1,0"
       position="197.48736,91.367667"
       id="guide3880" />
    <sodipodi:guide
       orientation="1,0"
       position="48,99.875"
       id="guide4579" />
    <sodipodi:guide
       orientation="1,0"
       position="3,100.5"
       id="guide4581" />
    <sodipodi:guide
       orientation="1,0"
       position="45,92.125"
       id="guide4583" />
    <sodipodi:guide
       orientation="0,1"
       position="66.75,48"
       id="guide4585" />
    <sodipodi:guide
       orientation="0,1"
       position="26.5,45"
       id="guide4587" />
    <sodipodi:guide
       orientation="0,1"
       position="30.375,3"
       id="guide4589" />
    <sodipodi:guide
       orientation="0,1"
       position="34.125,51"
       id="guide4591" />
    <sodipodi:guide
       orientation="0,1"
       position="26.75,93"
       id="guide4595" />
    <sodipodi:guide
       orientation="1,0"
       position="93,107.375"
       id="guide4597" />
    <sodipodi:guide
       orientation="1,0"
       position="51,37.125"
       id="guide4737" />
    <sodipodi:guide
       orientation="0,1"
       position="45,18.25"
       id="guide4880" />
  </sodipodi:namedview>
  <metadata
     id="metadata7">
    <rdf:RDF>
      <cc:Work
         rdf:about="">
        <dc:format>image/svg+xml</dc:format>
        <dc:type
           rdf:resource="http://purl.org/dc/dcmitype/StillImage" />
        <dc:title></dc:title>
      </cc:Work>
    </rdf:RDF>
  </metadata>
  <g
     inkscape:groupmode="layer"
     id="layer3"
     inkscape:label="Слой#1"
     style="opacity:0;display:inline">
    <rect
       style="fill:#ff0000;fill-opacity:1;stroke:none"
       id="tab_trolleybus_inactive"
       width="48"
       height="48"
       x="0"
       y="48"
       inkscape:label="#rect4740"
       inkscape:export-filename="/home/kriomant/Dropbox/Projects/gortrans/src/main/res/drawable/tab_trolleybus_inactive.png"
       inkscape:export-xdpi="90"
       inkscape:export-ydpi="90" />
    <rect
       y="48"
       x="48"
       height="48"
       width="48"
       id="tab_trolleybus_active"
       style="fill:#00ff00;fill-opacity:1;stroke:none"
       inkscape:label="#rect4742"
       inkscape:export-filename="/home/kriomant/Dropbox/Projects/gortrans/src/main/res/drawable/tab_trolleybus_active.png"
       inkscape:export-xdpi="90"
       inkscape:export-ydpi="90" />
  </g>
  <g
     inkscape:groupmode="layer"
     id="layer2"
     inkscape:label="Слой"
     style="display:inline;opacity:1"
     transform="translate(-0.25,-14.343749)">
    <g
       id="g5232"
       style="fill-opacity:1">
      <path
         inkscape:connector-curvature="0"
         id="path5177"
         d="m 14.882582,42.031249 c -1.001016,0 -1.8125,0.811484 -1.8125,1.8125 0,1.001016 0.811484,1.8125 1.8125,1.8125 1.001016,0 1.8125,-0.811484 1.8125,-1.8125 0,-1.001016 -0.811484,-1.8125 -1.8125,-1.8125 z m 0,0.9375 c 0.485774,0 0.875,0.389226 0.875,0.875 0,0.485774 -0.389226,0.875 -0.875,0.875 -0.485774,0 -0.875,-0.389226 -0.875,-0.875 0,-0.485774 0.389226,-0.875 0.875,-0.875 z"
         style="fill-opacity:1;stroke:none" />
      <path
         inkscape:connector-curvature="0"
         style="fill-opacity:1;stroke:none"
         d="m 35.689344,42.031249 c -1.001016,0 -1.8125,0.811484 -1.8125,1.8125 0,1.001016 0.811484,1.8125 1.8125,1.8125 1.001016,0 1.8125,-0.811484 1.8125,-1.8125 0,-1.001016 -0.811484,-1.8125 -1.8125,-1.8125 z m 0,0.9375 c 0.485774,0 0.875,0.389226 0.875,0.875 0,0.485774 -0.389226,0.875 -0.875,0.875 -0.485774,0 -0.875,-0.389226 -0.875,-0.875 0,-0.485774 0.389226,-0.875 0.875,-0.875 z"
         id="path5182" />
      <path
         id="path5188"
         transform="translate(0.25,14.343749)"
         d="M 4.46875 11.40625 L 4.375 11.8125 L 23.59375 18.875 L 23.28125 19.0625 L 23.34375 19.3125 L 16.25 19.3125 L 16.25 19.59375 L 3.59375 19.59375 L 3.59375 29.53125 L 5.9375 30.09375 L 12.5 30.09375 C 12.45353 25.812121 17.432506 27.068894 16.65625 30.09375 L 33.46875 30.09375 C 32.977059 26.661092 37.63685 26.313759 37.59375 30.09375 L 43.21875 30.09375 L 44.625 29.84375 L 44.59375 25.65625 L 44.09375 20.96875 L 44.15625 19.53125 L 39.90625 19.53125 L 39.8125 19.25 L 34.75 19.25 L 34.75 18.5625 L 25.0625 18.5625 L 24.65625 18.21875 L 24.53125 18 L 23.8125 17.9375 L 23.78125 18.09375 L 20.875 16.625 L 20.5625 17.1875 L 4.46875 11.40625 z M 4.53125 20.96875 L 5.8125 20.96875 C 6.1449 20.96875 6.40625 21.2301 6.40625 21.5625 L 6.40625 24.0625 C 6.40625 24.3949 6.1449 24.65625 5.8125 24.65625 L 4.53125 24.65625 C 4.19885 24.65625 3.9375 24.3949 3.9375 24.0625 L 3.9375 21.5625 C 3.9375 21.2301 4.19885 20.96875 4.53125 20.96875 z M 12.53125 20.96875 L 16.15625 20.96875 C 16.48865 20.96875 16.75 21.2301 16.75 21.5625 L 16.75 24.0625 C 16.75 24.3949 16.48865 24.65625 16.15625 24.65625 L 12.53125 24.65625 C 12.19885 24.65625 11.9375 24.3949 11.9375 24.0625 L 11.9375 21.5625 C 11.9375 21.2301 12.19885 20.96875 12.53125 20.96875 z M 17.90625 20.96875 L 21.3125 20.96875 C 21.6449 20.96875 21.90625 21.2301 21.90625 21.5625 L 21.90625 24.0625 C 21.90625 24.3949 21.6449 24.65625 21.3125 24.65625 L 17.90625 24.65625 C 17.57385 24.65625 17.3125 24.3949 17.3125 24.0625 L 17.3125 21.5625 C 17.3125 21.2301 17.57385 20.96875 17.90625 20.96875 z M 28.53125 20.96875 L 31.9375 20.96875 C 32.2699 20.96875 32.53125 21.2301 32.53125 21.5625 L 32.53125 24.0625 C 32.53125 24.3949 32.2699 24.65625 31.9375 24.65625 L 28.53125 24.65625 C 28.19885 24.65625 27.9375 24.3949 27.9375 24.0625 L 27.9375 21.5625 C 27.9375 21.2301 28.19885 20.96875 28.53125 20.96875 z M 33.75 20.96875 L 36.8125 20.96875 C 37.1449 20.96875 37.4375 21.2301 37.4375 21.5625 L 37.4375 24.0625 C 37.4375 24.3949 37.1449 24.65625 36.8125 24.65625 L 33.75 24.65625 C 33.4176 24.65625 33.125 24.3949 33.125 24.0625 L 33.125 21.5625 C 33.125 21.2301 33.4176 20.96875 33.75 20.96875 z M 43.34375 21.28125 L 43.375 21.3125 L 43.8125 21.34375 L 44.25 25.5625 L 43.34375 25.5625 L 43.34375 21.28125 z M 7.0625 21.53125 L 11.28125 21.53125 C 11.39205 21.53125 11.5 21.60795 11.5 21.71875 L 11.5 29.5625 C 11.5 29.6733 11.39205 29.75 11.28125 29.75 L 7.0625 29.75 C 6.9517 29.75 6.84375 29.6733 6.84375 29.5625 L 6.84375 21.71875 C 6.84375 21.60795 6.9517 21.53125 7.0625 21.53125 z M 22.78125 21.53125 L 27.03125 21.53125 C 27.14205 21.53125 27.21875 21.60795 27.21875 21.71875 L 27.21875 29.5625 C 27.21875 29.6733 27.14205 29.75 27.03125 29.75 L 22.78125 29.75 C 22.67045 29.75 22.59375 29.6733 22.59375 29.5625 L 22.59375 21.71875 C 22.59375 21.60795 22.67045 21.53125 22.78125 21.53125 z M 38.375 21.53125 L 42.625 21.53125 C 42.7358 21.53125 42.8125 21.60795 42.8125 21.71875 L 42.8125 29.5625 C 42.8125 29.6733 42.7358 29.75 42.625 29.75 L 38.375 29.75 C 38.2642 29.75 38.1875 29.6733 38.1875 29.5625 L 38.1875 21.71875 C 38.1875 21.60795 38.2642 21.53125 38.375 21.53125 z "
         style="fill-opacity:1;stroke:none" />
    </g>
    <rect
       style="fill:#ffffff;fill-opacity:1;stroke:none"
       id="rect5216"
       width="2.4748738"
       height="3.7123106"
       x="34.183281"
       y="35.30204"
       rx="0.60000002"
       ry="0.60000002" />
    <use
       x="0"
       y="0"
       xlink:href="#g5232"
       id="use5237"
       transform="translate(0,47.646446)"
       width="96"
       height="96"
       style="stroke:none;stroke-opacity:1;fill:#808080;fill-opacity:1" />
    <use
       height="96"
       width="96"
       transform="translate(47.944547,47.646446)"
       id="use5239"
       xlink:href="#g5232"
       y="0"
       x="0"
       style="fill:#ffffff;fill-opacity:1;filter:url(#filter5241)" />
  </g>
</svg>
